<?xml version="1.0" standalone="no"?>
<!DOCTYPE svg PUBLIC "-//W3C//DTD SVG 20010904//EN"
 "http://www.w3.org/TR/2001/REC-SVG-20010904/DTD/svg10.dtd">
<svg version="1.0" xmlns="http://www.w3.org/2000/svg"
 width="716.000000pt" height="716.000000pt" viewBox="0 0 716.000000 716.000000"
 preserveAspectRatio="xMidYMid meet">
<metadata>
Created by potrace 1.13, written by Peter Selinger 2001-2015
</metadata>
<g transform="translate(0.000000,716.000000) scale(0.100000,-0.100000)"
fill="#000000" stroke="none">
<path d="M757 6719 c-101 -24 -210 -102 -269 -193 -74 -115 -68 144 -68 -2906
0 -3011 -4 -2793 57 -2897 31 -54 129 -144 185 -171 114 -55 -67 -52 2868 -52
2406 0 2712 2 2765 15 86 23 138 50 199 106 72 65 110 128 135 219 21 75 21
77 21 2775 0 2944 3 2760 -56 2877 -39 77 -120 152 -211 196 l-78 37 -2755 2
c-1579 0 -2771 -3 -2793 -8z m1192 -859 c405 -120 527 -634 217 -918 -217
-198 -540 -190 -747 17 -285 285 -171 767 213 895 96 32 222 35 317 6z m2843
-1390 c190 -18 389 -84 514 -171 158 -108 281 -295 345 -524 75 -269 79 -345
79 -1423 l0 -932 -467 2 -468 3 -5 890 c-5 804 -8 897 -24 965 -39 169 -114
273 -236 329 -60 28 -86 34 -169 38 -298 17 -481 -111 -550 -385 -37 -142 -41
-247 -41 -1054 l0 -788 -465 0 -465 0 2 1493 3 1492 440 0 440 0 5 -204 5
-204 36 54 c120 181 318 322 540 384 151 43 293 53 481 35z m-2538 -66 c15 -6
16 -129 16 -1495 l0 -1489 -470 0 -470 0 0 1488 c0 819 3 1491 6 1495 8 8 896
9 918 1z"/>
</g>
</svg>
