<?xml version="1.0" standalone="no"?>
<!DOCTYPE svg PUBLIC "-//W3C//DTD SVG 20010904//EN"
 "http://www.w3.org/TR/2001/REC-SVG-20010904/DTD/svg10.dtd">
<svg version="1.0" xmlns="http://www.w3.org/2000/svg"
 width="716.000000pt" height="716.000000pt" viewBox="0 0 716.000000 716.000000"
 preserveAspectRatio="xMidYMid meet">
<metadata>
Created by potrace 1.13, written by Peter Selinger 2001-2015
</metadata>
<g transform="translate(0.000000,716.000000) scale(0.100000,-0.100000)"
fill="#000000" stroke="none">
<path d="M409 6983 c-98 -32 -202 -139 -233 -237 -15 -46 -16 -335 -14 -3186
l3 -3135 25 -50 c31 -64 121 -154 185 -185 l50 -25 2045 -6 c1125 -3 2545 -3
3155 0 l1110 6 50 25 c64 31 154 121 185 185 l25 50 0 3155 0 3155 -25 50
c-31 64 -121 154 -185 185 l-50 25 -3140 2 c-2810 2 -3145 0 -3186 -14z m5371
-1034 c80 -6 151 -16 158 -22 9 -7 12 -108 10 -466 l-3 -456 -350 -6 c-276 -5
-363 -10 -413 -23 -157 -40 -238 -121 -278 -277 -13 -52 -17 -136 -21 -456
l-5 -393 510 0 c281 0 513 -4 516 -8 3 -6 -92 -773 -126 -1017 -3 -20 -13 -20
-448 -25 l-445 -5 -3 -1318 -2 -1317 -535 0 -535 0 0 1320 0 1320 -445 0 -445
0 0 525 0 525 444 0 445 0 4 503 c4 550 8 584 73 781 155 466 515 757 1016
825 94 13 690 6 878 -10z"/>
</g>
</svg>
